<mxfile host="app.diagrams.net" agent="Mozilla/5.0 (Macintosh; Intel Mac OS X 10_15_7) AppleWebKit/537.36 (KHTML, like Gecko) Chrome/130.0.0.0 Safari/537.36" version="24.8.6">
  <diagram id="6a731a19-8d31-9384-78a2-239565b7b9f0" name="Page-1">
    <mxGraphModel dx="2979" dy="1818" grid="1" gridSize="10" guides="1" tooltips="1" connect="1" arrows="1" fold="1" page="1" pageScale="1" pageWidth="1169" pageHeight="827" background="none" math="0" shadow="0">
      <root>
        <mxCell id="0" />
        <mxCell id="1" parent="0" />
        <mxCell id="1745" value="" style="edgeStyle=none;rounded=0;jumpStyle=none;html=1;shadow=0;labelBackgroundColor=none;startArrow=none;startFill=0;endArrow=classic;endFill=1;jettySize=auto;orthogonalLoop=1;strokeColor=#2F5B7C;strokeWidth=3;fontFamily=Helvetica;fontSize=16;fontColor=#23445D;spacing=5;" parent="1" source="1749" target="1764" edge="1">
          <mxGeometry relative="1" as="geometry" />
        </mxCell>
        <mxCell id="1746" value="" style="edgeStyle=none;rounded=0;jumpStyle=none;html=1;shadow=0;labelBackgroundColor=none;startArrow=none;startFill=0;endArrow=classic;endFill=1;jettySize=auto;orthogonalLoop=1;strokeColor=#2F5B7C;strokeWidth=3;fontFamily=Helvetica;fontSize=16;fontColor=#23445D;spacing=5;" parent="1" source="1749" target="1771" edge="1">
          <mxGeometry relative="1" as="geometry" />
        </mxCell>
        <mxCell id="1747" value="" style="edgeStyle=none;rounded=0;jumpStyle=none;html=1;shadow=0;labelBackgroundColor=none;startArrow=none;startFill=0;endArrow=classic;endFill=1;jettySize=auto;orthogonalLoop=1;strokeColor=#2F5B7C;strokeWidth=3;fontFamily=Helvetica;fontSize=16;fontColor=#23445D;spacing=5;" parent="1" source="1749" target="1760" edge="1">
          <mxGeometry relative="1" as="geometry" />
        </mxCell>
        <mxCell id="1748" value="" style="edgeStyle=none;rounded=0;jumpStyle=none;html=1;shadow=0;labelBackgroundColor=none;startArrow=none;startFill=0;endArrow=classic;endFill=1;jettySize=auto;orthogonalLoop=1;strokeColor=#2F5B7C;strokeWidth=3;fontFamily=Helvetica;fontSize=16;fontColor=#23445D;spacing=5;" parent="1" source="1749" target="1753" edge="1">
          <mxGeometry relative="1" as="geometry" />
        </mxCell>
        <mxCell id="1749" value="Безопасность данных" style="rounded=1;whiteSpace=wrap;html=1;shadow=0;labelBackgroundColor=none;strokeColor=none;strokeWidth=3;fillColor=#2F5B7C;fontFamily=Helvetica;fontSize=16;fontColor=#FFFFFF;align=center;fontStyle=1;spacing=5;arcSize=7;perimeterSpacing=2;" parent="1" vertex="1">
          <mxGeometry x="495" y="380.5" width="150" height="70" as="geometry" />
        </mxCell>
        <mxCell id="1751" value="" style="edgeStyle=none;rounded=1;jumpStyle=none;html=1;shadow=0;labelBackgroundColor=none;startArrow=none;startFill=0;jettySize=auto;orthogonalLoop=1;strokeColor=#E85642;strokeWidth=3;fontFamily=Helvetica;fontSize=14;fontColor=#FFFFFF;spacing=5;fontStyle=1;fillColor=#b0e3e6;" parent="1" source="1753" target="1755" edge="1">
          <mxGeometry relative="1" as="geometry" />
        </mxCell>
        <mxCell id="1752" value="" style="edgeStyle=none;rounded=1;jumpStyle=none;html=1;shadow=0;labelBackgroundColor=none;startArrow=none;startFill=0;jettySize=auto;orthogonalLoop=1;strokeColor=#E85642;strokeWidth=3;fontFamily=Helvetica;fontSize=14;fontColor=#FFFFFF;spacing=5;fontStyle=1;fillColor=#b0e3e6;" parent="1" source="1753" target="1754" edge="1">
          <mxGeometry relative="1" as="geometry" />
        </mxCell>
        <mxCell id="1753" value="секретные данные" style="rounded=1;whiteSpace=wrap;html=1;shadow=0;labelBackgroundColor=none;strokeColor=none;strokeWidth=3;fillColor=#e85642;fontFamily=Helvetica;fontSize=14;fontColor=#FFFFFF;align=center;spacing=5;fontStyle=1;arcSize=7;perimeterSpacing=2;" parent="1" vertex="1">
          <mxGeometry x="215" y="385.5" width="150" height="60" as="geometry" />
        </mxCell>
        <mxCell id="EFk04_Iw9DsAVUD9k5jW-1823" value="" style="edgeStyle=orthogonalEdgeStyle;rounded=0;orthogonalLoop=1;jettySize=auto;html=1;" edge="1" parent="1" source="1754" target="EFk04_Iw9DsAVUD9k5jW-1822">
          <mxGeometry relative="1" as="geometry" />
        </mxCell>
        <mxCell id="EFk04_Iw9DsAVUD9k5jW-1837" style="edgeStyle=orthogonalEdgeStyle;rounded=0;orthogonalLoop=1;jettySize=auto;html=1;entryX=1;entryY=0.5;entryDx=0;entryDy=0;" edge="1" parent="1" source="1754" target="EFk04_Iw9DsAVUD9k5jW-1835">
          <mxGeometry relative="1" as="geometry" />
        </mxCell>
        <mxCell id="1754" value="информация о сделках" style="rounded=1;whiteSpace=wrap;html=1;shadow=0;labelBackgroundColor=none;strokeColor=none;strokeWidth=3;fillColor=#f08e81;fontFamily=Helvetica;fontSize=14;fontColor=#FFFFFF;align=center;spacing=5;fontStyle=0;arcSize=7;perimeterSpacing=2;" parent="1" vertex="1">
          <mxGeometry x="-20" y="387.75" width="150" height="60" as="geometry" />
        </mxCell>
        <mxCell id="EFk04_Iw9DsAVUD9k5jW-1825" value="" style="edgeStyle=orthogonalEdgeStyle;rounded=0;orthogonalLoop=1;jettySize=auto;html=1;" edge="1" parent="1" source="1755" target="EFk04_Iw9DsAVUD9k5jW-1824">
          <mxGeometry relative="1" as="geometry" />
        </mxCell>
        <mxCell id="EFk04_Iw9DsAVUD9k5jW-1831" value="" style="edgeStyle=orthogonalEdgeStyle;rounded=0;orthogonalLoop=1;jettySize=auto;html=1;" edge="1" parent="1" source="1755" target="EFk04_Iw9DsAVUD9k5jW-1830">
          <mxGeometry relative="1" as="geometry" />
        </mxCell>
        <mxCell id="1755" value="оплата ЖКХ" style="rounded=1;whiteSpace=wrap;html=1;shadow=0;labelBackgroundColor=none;strokeColor=none;strokeWidth=3;fillColor=#f08e81;fontFamily=Helvetica;fontSize=14;fontColor=#FFFFFF;align=center;spacing=5;fontStyle=0;arcSize=7;perimeterSpacing=2;" parent="1" vertex="1">
          <mxGeometry x="65" y="260" width="150" height="60" as="geometry" />
        </mxCell>
        <mxCell id="1757" value="" style="edgeStyle=none;rounded=0;jumpStyle=none;html=1;shadow=0;labelBackgroundColor=none;startArrow=none;startFill=0;endArrow=classic;endFill=1;jettySize=auto;orthogonalLoop=1;strokeColor=#1699D3;strokeWidth=3;fontFamily=Helvetica;fontSize=14;fontColor=#FFFFFF;spacing=5;" parent="1" source="1760" target="1763" edge="1">
          <mxGeometry relative="1" as="geometry" />
        </mxCell>
        <mxCell id="1758" value="" style="edgeStyle=none;rounded=0;jumpStyle=none;html=1;shadow=0;labelBackgroundColor=none;startArrow=none;startFill=0;endArrow=classic;endFill=1;jettySize=auto;orthogonalLoop=1;strokeColor=#1699D3;strokeWidth=3;fontFamily=Helvetica;fontSize=14;fontColor=#FFFFFF;spacing=5;" parent="1" source="1760" target="1762" edge="1">
          <mxGeometry relative="1" as="geometry" />
        </mxCell>
        <mxCell id="1759" value="" style="edgeStyle=none;rounded=0;jumpStyle=none;html=1;shadow=0;labelBackgroundColor=none;startArrow=none;startFill=0;endArrow=classic;endFill=1;jettySize=auto;orthogonalLoop=1;strokeColor=#1699D3;strokeWidth=3;fontFamily=Helvetica;fontSize=14;fontColor=#FFFFFF;spacing=5;" parent="1" source="1760" target="1761" edge="1">
          <mxGeometry relative="1" as="geometry" />
        </mxCell>
        <mxCell id="1760" value="конфиденциальные данные" style="rounded=1;whiteSpace=wrap;html=1;shadow=0;labelBackgroundColor=none;strokeColor=none;strokeWidth=3;fillColor=#1699d3;fontFamily=Helvetica;fontSize=14;fontColor=#FFFFFF;align=center;spacing=5;fontStyle=1;arcSize=7;perimeterSpacing=2;" parent="1" vertex="1">
          <mxGeometry x="495" y="570.5" width="150" height="60" as="geometry" />
        </mxCell>
        <mxCell id="1761" value="данные умного дома" style="rounded=1;whiteSpace=wrap;html=1;shadow=0;labelBackgroundColor=none;strokeColor=none;strokeWidth=3;fillColor=#64bbe2;fontFamily=Helvetica;fontSize=14;fontColor=#FFFFFF;align=center;spacing=5;arcSize=7;perimeterSpacing=2;" parent="1" vertex="1">
          <mxGeometry x="695" y="620" width="150" height="60" as="geometry" />
        </mxCell>
        <mxCell id="EFk04_Iw9DsAVUD9k5jW-1800" style="edgeStyle=orthogonalEdgeStyle;rounded=0;orthogonalLoop=1;jettySize=auto;html=1;" edge="1" parent="1" source="1762" target="EFk04_Iw9DsAVUD9k5jW-1798">
          <mxGeometry relative="1" as="geometry" />
        </mxCell>
        <mxCell id="EFk04_Iw9DsAVUD9k5jW-1809" style="edgeStyle=orthogonalEdgeStyle;rounded=0;orthogonalLoop=1;jettySize=auto;html=1;" edge="1" parent="1" source="1762" target="EFk04_Iw9DsAVUD9k5jW-1806">
          <mxGeometry relative="1" as="geometry">
            <Array as="points">
              <mxPoint x="570" y="930" />
              <mxPoint x="710" y="930" />
            </Array>
          </mxGeometry>
        </mxCell>
        <mxCell id="EFk04_Iw9DsAVUD9k5jW-1810" style="edgeStyle=orthogonalEdgeStyle;rounded=0;orthogonalLoop=1;jettySize=auto;html=1;" edge="1" parent="1" source="1762" target="EFk04_Iw9DsAVUD9k5jW-1804">
          <mxGeometry relative="1" as="geometry">
            <Array as="points">
              <mxPoint x="570" y="930" />
              <mxPoint x="935" y="930" />
            </Array>
          </mxGeometry>
        </mxCell>
        <mxCell id="EFk04_Iw9DsAVUD9k5jW-1842" style="edgeStyle=orthogonalEdgeStyle;rounded=0;orthogonalLoop=1;jettySize=auto;html=1;entryX=0;entryY=0.5;entryDx=0;entryDy=0;" edge="1" parent="1" source="1762" target="EFk04_Iw9DsAVUD9k5jW-1839">
          <mxGeometry relative="1" as="geometry" />
        </mxCell>
        <mxCell id="1762" value="собственники" style="rounded=1;whiteSpace=wrap;html=1;shadow=0;labelBackgroundColor=none;strokeColor=none;strokeWidth=3;fillColor=#64bbe2;fontFamily=Helvetica;fontSize=14;fontColor=#FFFFFF;align=center;spacing=5;arcSize=7;perimeterSpacing=2;" parent="1" vertex="1">
          <mxGeometry x="495" y="716.5" width="150" height="60" as="geometry" />
        </mxCell>
        <mxCell id="EFk04_Iw9DsAVUD9k5jW-1780" value="" style="edgeStyle=orthogonalEdgeStyle;rounded=0;orthogonalLoop=1;jettySize=auto;html=1;" edge="1" parent="1" source="1763" target="EFk04_Iw9DsAVUD9k5jW-1779">
          <mxGeometry relative="1" as="geometry" />
        </mxCell>
        <mxCell id="EFk04_Iw9DsAVUD9k5jW-1781" value="" style="edgeStyle=orthogonalEdgeStyle;rounded=0;orthogonalLoop=1;jettySize=auto;html=1;" edge="1" parent="1" source="1763" target="EFk04_Iw9DsAVUD9k5jW-1779">
          <mxGeometry relative="1" as="geometry" />
        </mxCell>
        <mxCell id="EFk04_Iw9DsAVUD9k5jW-1783" value="" style="edgeStyle=orthogonalEdgeStyle;rounded=0;orthogonalLoop=1;jettySize=auto;html=1;" edge="1" parent="1" source="1763" target="EFk04_Iw9DsAVUD9k5jW-1782">
          <mxGeometry relative="1" as="geometry" />
        </mxCell>
        <mxCell id="EFk04_Iw9DsAVUD9k5jW-1794" value="" style="edgeStyle=orthogonalEdgeStyle;rounded=0;orthogonalLoop=1;jettySize=auto;html=1;" edge="1" parent="1" source="1763" target="EFk04_Iw9DsAVUD9k5jW-1793">
          <mxGeometry relative="1" as="geometry" />
        </mxCell>
        <mxCell id="EFk04_Iw9DsAVUD9k5jW-1819" value="" style="edgeStyle=orthogonalEdgeStyle;rounded=0;orthogonalLoop=1;jettySize=auto;html=1;" edge="1" parent="1" source="1763" target="EFk04_Iw9DsAVUD9k5jW-1818">
          <mxGeometry relative="1" as="geometry" />
        </mxCell>
        <mxCell id="1763" value="клиенты" style="rounded=1;whiteSpace=wrap;html=1;shadow=0;labelBackgroundColor=none;strokeColor=none;strokeWidth=3;fillColor=#64bbe2;fontFamily=Helvetica;fontSize=14;fontColor=#FFFFFF;align=center;spacing=5;arcSize=7;perimeterSpacing=2;" parent="1" vertex="1">
          <mxGeometry x="295" y="650.5" width="150" height="60" as="geometry" />
        </mxCell>
        <mxCell id="1764" value="публичные данные" style="rounded=1;whiteSpace=wrap;html=1;shadow=0;labelBackgroundColor=none;strokeColor=none;strokeWidth=3;fillColor=#F08705;fontFamily=Helvetica;fontSize=14;fontColor=#FFFFFF;align=center;spacing=5;fontStyle=1;arcSize=7;perimeterSpacing=2;" parent="1" vertex="1">
          <mxGeometry x="495" y="200.5" width="150" height="60" as="geometry" />
        </mxCell>
        <mxCell id="1765" value="каталог недвижимости" style="rounded=1;whiteSpace=wrap;html=1;shadow=0;labelBackgroundColor=none;strokeColor=none;strokeWidth=3;fillColor=#f5af58;fontFamily=Helvetica;fontSize=14;fontColor=#FFFFFF;align=center;spacing=5;arcSize=7;perimeterSpacing=2;" parent="1" vertex="1">
          <mxGeometry x="695" y="110.5" width="150" height="60" as="geometry" />
        </mxCell>
        <mxCell id="1766" value="" style="edgeStyle=none;rounded=0;jumpStyle=none;html=1;shadow=0;labelBackgroundColor=none;startArrow=none;startFill=0;endArrow=classic;endFill=1;jettySize=auto;orthogonalLoop=1;strokeColor=#F08705;strokeWidth=3;fontFamily=Helvetica;fontSize=14;fontColor=#FFFFFF;spacing=5;" parent="1" source="1764" target="1765" edge="1">
          <mxGeometry relative="1" as="geometry" />
        </mxCell>
        <mxCell id="1767" value="онлайн витрина" style="rounded=1;whiteSpace=wrap;html=1;shadow=0;labelBackgroundColor=none;strokeColor=none;strokeWidth=3;fillColor=#f5af58;fontFamily=Helvetica;fontSize=14;fontColor=#FFFFFF;align=center;spacing=5;arcSize=7;perimeterSpacing=2;" parent="1" vertex="1">
          <mxGeometry x="495" y="50.5" width="150" height="60" as="geometry" />
        </mxCell>
        <mxCell id="1768" value="" style="edgeStyle=none;rounded=0;jumpStyle=none;html=1;shadow=0;labelBackgroundColor=none;startArrow=none;startFill=0;endArrow=classic;endFill=1;jettySize=auto;orthogonalLoop=1;strokeColor=#F08705;strokeWidth=3;fontFamily=Helvetica;fontSize=14;fontColor=#FFFFFF;spacing=5;" parent="1" source="1764" target="1767" edge="1">
          <mxGeometry relative="1" as="geometry" />
        </mxCell>
        <mxCell id="1769" value="онлайн тур" style="rounded=1;whiteSpace=wrap;html=1;shadow=0;labelBackgroundColor=none;strokeColor=none;strokeWidth=3;fillColor=#f5af58;fontFamily=Helvetica;fontSize=14;fontColor=#FFFFFF;align=center;spacing=5;arcSize=7;perimeterSpacing=2;" parent="1" vertex="1">
          <mxGeometry x="295" y="110.5" width="150" height="60" as="geometry" />
        </mxCell>
        <mxCell id="1770" value="" style="edgeStyle=none;rounded=0;jumpStyle=none;html=1;shadow=0;labelBackgroundColor=none;startArrow=none;startFill=0;endArrow=classic;endFill=1;jettySize=auto;orthogonalLoop=1;strokeColor=#F08705;strokeWidth=3;fontFamily=Helvetica;fontSize=14;fontColor=#FFFFFF;spacing=5;" parent="1" source="1764" target="1769" edge="1">
          <mxGeometry relative="1" as="geometry" />
        </mxCell>
        <mxCell id="1771" value="внутренние данные" style="rounded=1;whiteSpace=wrap;html=1;shadow=0;labelBackgroundColor=none;strokeColor=none;strokeWidth=3;fillColor=#12aab5;fontFamily=Helvetica;fontSize=14;fontColor=#FFFFFF;align=center;spacing=5;fontStyle=1;arcSize=7;perimeterSpacing=2;" parent="1" vertex="1">
          <mxGeometry x="795" y="385.4999999999999" width="150" height="60" as="geometry" />
        </mxCell>
        <mxCell id="1772" value="управляющие компании" style="rounded=1;whiteSpace=wrap;html=1;shadow=0;labelBackgroundColor=none;strokeColor=none;strokeWidth=3;fillColor=#61c6ce;fontFamily=Helvetica;fontSize=14;fontColor=#FFFFFF;align=center;spacing=5;fontStyle=0;arcSize=7;perimeterSpacing=2;" parent="1" vertex="1">
          <mxGeometry x="940" y="524.5" width="150" height="60" as="geometry" />
        </mxCell>
        <mxCell id="1773" value="" style="edgeStyle=none;rounded=1;jumpStyle=none;html=1;shadow=0;labelBackgroundColor=none;startArrow=none;startFill=0;jettySize=auto;orthogonalLoop=1;strokeColor=#12AAB5;strokeWidth=3;fontFamily=Helvetica;fontSize=14;fontColor=#FFFFFF;spacing=5;fontStyle=1;fillColor=#b0e3e6;" parent="1" source="1771" target="1772" edge="1">
          <mxGeometry relative="1" as="geometry" />
        </mxCell>
        <mxCell id="1774" value="партнеры" style="rounded=1;whiteSpace=wrap;html=1;shadow=0;labelBackgroundColor=none;strokeColor=none;strokeWidth=3;fillColor=#61c6ce;fontFamily=Helvetica;fontSize=14;fontColor=#FFFFFF;align=center;spacing=5;fontStyle=0;arcSize=7;perimeterSpacing=2;" parent="1" vertex="1">
          <mxGeometry x="940" y="260" width="150" height="60" as="geometry" />
        </mxCell>
        <mxCell id="1775" value="" style="edgeStyle=none;rounded=1;jumpStyle=none;html=1;shadow=0;labelBackgroundColor=none;startArrow=none;startFill=0;jettySize=auto;orthogonalLoop=1;strokeColor=#12AAB5;strokeWidth=3;fontFamily=Helvetica;fontSize=14;fontColor=#FFFFFF;spacing=5;fontStyle=1;fillColor=#b0e3e6;" parent="1" source="1771" target="1774" edge="1">
          <mxGeometry relative="1" as="geometry" />
        </mxCell>
        <mxCell id="EFk04_Iw9DsAVUD9k5jW-1785" value="" style="edgeStyle=orthogonalEdgeStyle;rounded=0;orthogonalLoop=1;jettySize=auto;html=1;" edge="1" parent="1" source="EFk04_Iw9DsAVUD9k5jW-1779" target="EFk04_Iw9DsAVUD9k5jW-1784">
          <mxGeometry relative="1" as="geometry" />
        </mxCell>
        <mxCell id="EFk04_Iw9DsAVUD9k5jW-1791" value="" style="edgeStyle=orthogonalEdgeStyle;rounded=0;orthogonalLoop=1;jettySize=auto;html=1;exitX=1;exitY=0.5;exitDx=0;exitDy=0;" edge="1" parent="1" source="EFk04_Iw9DsAVUD9k5jW-1779" target="EFk04_Iw9DsAVUD9k5jW-1790">
          <mxGeometry relative="1" as="geometry">
            <mxPoint x="430" y="850" as="sourcePoint" />
          </mxGeometry>
        </mxCell>
        <mxCell id="EFk04_Iw9DsAVUD9k5jW-1779" value="Риск: утечка данных&lt;br&gt;Оценка: критическая" style="whiteSpace=wrap;html=1;fontSize=14;fillColor=#64bbe2;strokeColor=none;fontColor=#FFFFFF;rounded=1;shadow=0;labelBackgroundColor=none;strokeWidth=3;spacing=5;arcSize=7;" vertex="1" parent="1">
          <mxGeometry x="260" y="790.5" width="170" height="49.5" as="geometry" />
        </mxCell>
        <mxCell id="EFk04_Iw9DsAVUD9k5jW-1787" value="" style="edgeStyle=orthogonalEdgeStyle;rounded=0;orthogonalLoop=1;jettySize=auto;html=1;" edge="1" parent="1" source="EFk04_Iw9DsAVUD9k5jW-1782" target="EFk04_Iw9DsAVUD9k5jW-1786">
          <mxGeometry relative="1" as="geometry" />
        </mxCell>
        <mxCell id="EFk04_Iw9DsAVUD9k5jW-1782" value="Риск: искажение данных&lt;br&gt;Оценка: критическая" style="whiteSpace=wrap;html=1;fontSize=14;fillColor=#64bbe2;strokeColor=none;fontColor=#FFFFFF;rounded=1;shadow=0;labelBackgroundColor=none;strokeWidth=3;spacing=5;arcSize=7;" vertex="1" parent="1">
          <mxGeometry x="30" y="790.5" width="180" height="59.5" as="geometry" />
        </mxCell>
        <mxCell id="EFk04_Iw9DsAVUD9k5jW-1784" value="Из-за доступа партнеров к данным любых клиентов" style="whiteSpace=wrap;html=1;fontSize=14;fillColor=#64bbe2;strokeColor=none;fontColor=#FFFFFF;rounded=1;shadow=0;labelBackgroundColor=none;strokeWidth=3;spacing=5;arcSize=7;" vertex="1" parent="1">
          <mxGeometry x="277.5" y="940" width="135" height="70" as="geometry" />
        </mxCell>
        <mxCell id="EFk04_Iw9DsAVUD9k5jW-1786" value="Из-за доступа партнеров к данным любых клиентов" style="whiteSpace=wrap;html=1;fontSize=14;fillColor=#64bbe2;strokeColor=none;fontColor=#FFFFFF;rounded=1;shadow=0;labelBackgroundColor=none;strokeWidth=3;spacing=5;arcSize=7;" vertex="1" parent="1">
          <mxGeometry x="40" y="929.75" width="160" height="60.25" as="geometry" />
        </mxCell>
        <mxCell id="EFk04_Iw9DsAVUD9k5jW-1790" value="Из-за возможности одного клиента видеть данные другого клиента" style="whiteSpace=wrap;html=1;fontSize=14;fillColor=#64bbe2;strokeColor=none;fontColor=#FFFFFF;rounded=1;shadow=0;labelBackgroundColor=none;strokeWidth=3;spacing=5;arcSize=7;" vertex="1" parent="1">
          <mxGeometry x="440" y="940" width="160" height="80" as="geometry" />
        </mxCell>
        <mxCell id="EFk04_Iw9DsAVUD9k5jW-1796" value="" style="edgeStyle=orthogonalEdgeStyle;rounded=0;orthogonalLoop=1;jettySize=auto;html=1;" edge="1" parent="1" source="EFk04_Iw9DsAVUD9k5jW-1793" target="EFk04_Iw9DsAVUD9k5jW-1795">
          <mxGeometry relative="1" as="geometry" />
        </mxCell>
        <mxCell id="EFk04_Iw9DsAVUD9k5jW-1793" value="Риск:&amp;nbsp;обесценивание данных&lt;br&gt;Оценка: значительная" style="whiteSpace=wrap;html=1;fontSize=14;fillColor=#64bbe2;strokeColor=none;fontColor=#FFFFFF;rounded=1;shadow=0;labelBackgroundColor=none;strokeWidth=3;spacing=5;arcSize=7;" vertex="1" parent="1">
          <mxGeometry x="-100" y="651" width="160" height="60" as="geometry" />
        </mxCell>
        <mxCell id="EFk04_Iw9DsAVUD9k5jW-1795" value="Из-за того, что в каждых системах есть свои данные" style="whiteSpace=wrap;html=1;fontSize=14;fillColor=#64bbe2;strokeColor=none;fontColor=#FFFFFF;rounded=1;shadow=0;labelBackgroundColor=none;strokeWidth=3;spacing=5;arcSize=7;" vertex="1" parent="1">
          <mxGeometry x="-170" y="790.5" width="130" height="69.5" as="geometry" />
        </mxCell>
        <mxCell id="EFk04_Iw9DsAVUD9k5jW-1797" value="" style="edgeStyle=orthogonalEdgeStyle;rounded=0;orthogonalLoop=1;jettySize=auto;html=1;" edge="1" parent="1" source="EFk04_Iw9DsAVUD9k5jW-1798" target="EFk04_Iw9DsAVUD9k5jW-1799">
          <mxGeometry relative="1" as="geometry" />
        </mxCell>
        <mxCell id="EFk04_Iw9DsAVUD9k5jW-1798" value="Риск:&amp;nbsp;обесценивание данных&lt;br&gt;Оценка: значительная" style="whiteSpace=wrap;html=1;fontSize=14;fillColor=#64bbe2;strokeColor=none;fontColor=#FFFFFF;rounded=1;shadow=0;labelBackgroundColor=none;strokeWidth=3;spacing=5;arcSize=7;" vertex="1" parent="1">
          <mxGeometry x="790" y="730.5" width="160" height="60" as="geometry" />
        </mxCell>
        <mxCell id="EFk04_Iw9DsAVUD9k5jW-1799" value="Из-за того, что в каждых системах есть свои данные" style="whiteSpace=wrap;html=1;fontSize=14;fillColor=#64bbe2;strokeColor=none;fontColor=#FFFFFF;rounded=1;shadow=0;labelBackgroundColor=none;strokeWidth=3;spacing=5;arcSize=7;" vertex="1" parent="1">
          <mxGeometry x="920" y="850" width="130" height="69.5" as="geometry" />
        </mxCell>
        <mxCell id="EFk04_Iw9DsAVUD9k5jW-1815" value="" style="edgeStyle=orthogonalEdgeStyle;rounded=0;orthogonalLoop=1;jettySize=auto;html=1;" edge="1" parent="1" source="EFk04_Iw9DsAVUD9k5jW-1801" target="EFk04_Iw9DsAVUD9k5jW-1814">
          <mxGeometry relative="1" as="geometry" />
        </mxCell>
        <mxCell id="EFk04_Iw9DsAVUD9k5jW-1801" value="информация о ремонте" style="rounded=1;whiteSpace=wrap;html=1;shadow=0;labelBackgroundColor=none;strokeColor=none;strokeWidth=3;fillColor=#61c6ce;fontFamily=Helvetica;fontSize=14;fontColor=#FFFFFF;align=center;spacing=5;fontStyle=0;arcSize=7;perimeterSpacing=2;" vertex="1" parent="1">
          <mxGeometry x="1003" y="385.5" width="150" height="60" as="geometry" />
        </mxCell>
        <mxCell id="EFk04_Iw9DsAVUD9k5jW-1802" value="" style="edgeStyle=none;rounded=1;jumpStyle=none;html=1;shadow=0;labelBackgroundColor=none;startArrow=none;startFill=0;jettySize=auto;orthogonalLoop=1;strokeColor=#12AAB5;strokeWidth=3;fontFamily=Helvetica;fontSize=14;fontColor=#FFFFFF;spacing=5;fontStyle=1;fillColor=#b0e3e6;exitX=1;exitY=0.5;exitDx=0;exitDy=0;" edge="1" parent="1" target="EFk04_Iw9DsAVUD9k5jW-1801" source="1771">
          <mxGeometry relative="1" as="geometry">
            <mxPoint x="970" y="504.5" as="sourcePoint" />
          </mxGeometry>
        </mxCell>
        <mxCell id="EFk04_Iw9DsAVUD9k5jW-1803" value="" style="edgeStyle=orthogonalEdgeStyle;rounded=0;orthogonalLoop=1;jettySize=auto;html=1;" edge="1" parent="1" source="EFk04_Iw9DsAVUD9k5jW-1804" target="EFk04_Iw9DsAVUD9k5jW-1807">
          <mxGeometry relative="1" as="geometry" />
        </mxCell>
        <mxCell id="EFk04_Iw9DsAVUD9k5jW-1804" value="Риск: утечка данных&lt;br&gt;Оценка: критическая" style="whiteSpace=wrap;html=1;fontSize=14;fillColor=#64bbe2;strokeColor=none;fontColor=#FFFFFF;rounded=1;shadow=0;labelBackgroundColor=none;strokeWidth=3;spacing=5;arcSize=7;" vertex="1" parent="1">
          <mxGeometry x="850" y="1021" width="170" height="49.5" as="geometry" />
        </mxCell>
        <mxCell id="EFk04_Iw9DsAVUD9k5jW-1805" value="" style="edgeStyle=orthogonalEdgeStyle;rounded=0;orthogonalLoop=1;jettySize=auto;html=1;" edge="1" parent="1" source="EFk04_Iw9DsAVUD9k5jW-1806" target="EFk04_Iw9DsAVUD9k5jW-1808">
          <mxGeometry relative="1" as="geometry" />
        </mxCell>
        <mxCell id="EFk04_Iw9DsAVUD9k5jW-1806" value="Риск: искажение данных&lt;br&gt;Оценка: критическая" style="whiteSpace=wrap;html=1;fontSize=14;fillColor=#64bbe2;strokeColor=none;fontColor=#FFFFFF;rounded=1;shadow=0;labelBackgroundColor=none;strokeWidth=3;spacing=5;arcSize=7;" vertex="1" parent="1">
          <mxGeometry x="620" y="1021" width="180" height="59.5" as="geometry" />
        </mxCell>
        <mxCell id="EFk04_Iw9DsAVUD9k5jW-1807" value="Из-за доступа партнеров к данным любых собственников" style="whiteSpace=wrap;html=1;fontSize=14;fillColor=#64bbe2;strokeColor=none;fontColor=#FFFFFF;rounded=1;shadow=0;labelBackgroundColor=none;strokeWidth=3;spacing=5;arcSize=7;" vertex="1" parent="1">
          <mxGeometry x="867.5" y="1150.5" width="135" height="70" as="geometry" />
        </mxCell>
        <mxCell id="EFk04_Iw9DsAVUD9k5jW-1808" value="Из-за доступа партнеров к данным любых собственников" style="whiteSpace=wrap;html=1;fontSize=14;fillColor=#64bbe2;strokeColor=none;fontColor=#FFFFFF;rounded=1;shadow=0;labelBackgroundColor=none;strokeWidth=3;spacing=5;arcSize=7;" vertex="1" parent="1">
          <mxGeometry x="630" y="1160.25" width="160" height="60.25" as="geometry" />
        </mxCell>
        <mxCell id="EFk04_Iw9DsAVUD9k5jW-1817" value="" style="edgeStyle=orthogonalEdgeStyle;rounded=0;orthogonalLoop=1;jettySize=auto;html=1;" edge="1" parent="1" source="EFk04_Iw9DsAVUD9k5jW-1814" target="EFk04_Iw9DsAVUD9k5jW-1816">
          <mxGeometry relative="1" as="geometry" />
        </mxCell>
        <mxCell id="EFk04_Iw9DsAVUD9k5jW-1814" value="Риск: искажение данных&lt;br&gt;Оценка: значительная" style="whiteSpace=wrap;html=1;fontSize=14;fillColor=#61c6ce;strokeColor=none;fontColor=#FFFFFF;rounded=1;shadow=0;labelBackgroundColor=none;strokeWidth=3;spacing=5;fontStyle=0;arcSize=7;" vertex="1" parent="1">
          <mxGeometry x="1240" y="383.25" width="160" height="64.5" as="geometry" />
        </mxCell>
        <mxCell id="EFk04_Iw9DsAVUD9k5jW-1816" value="Из-за доступа партнеров к данным любых о ЖК" style="whiteSpace=wrap;html=1;fontSize=14;fillColor=#61c6ce;strokeColor=none;fontColor=#FFFFFF;rounded=1;shadow=0;labelBackgroundColor=none;strokeWidth=3;spacing=5;fontStyle=0;arcSize=7;" vertex="1" parent="1">
          <mxGeometry x="1261" y="532.25" width="126" height="77.75" as="geometry" />
        </mxCell>
        <mxCell id="EFk04_Iw9DsAVUD9k5jW-1821" value="" style="edgeStyle=orthogonalEdgeStyle;rounded=0;orthogonalLoop=1;jettySize=auto;html=1;" edge="1" parent="1" source="EFk04_Iw9DsAVUD9k5jW-1818" target="EFk04_Iw9DsAVUD9k5jW-1820">
          <mxGeometry relative="1" as="geometry" />
        </mxCell>
        <mxCell id="EFk04_Iw9DsAVUD9k5jW-1818" value="Риск:&amp;nbsp;потеря данных&lt;br&gt;Оценка: незначительная" style="whiteSpace=wrap;html=1;fontSize=14;fillColor=#64bbe2;strokeColor=none;fontColor=#FFFFFF;rounded=1;shadow=0;labelBackgroundColor=none;strokeWidth=3;spacing=5;arcSize=7;" vertex="1" parent="1">
          <mxGeometry x="70" y="532.25" width="150" height="60" as="geometry" />
        </mxCell>
        <mxCell id="EFk04_Iw9DsAVUD9k5jW-1820" value="Из-за резервного копирования данных" style="whiteSpace=wrap;html=1;fontSize=14;fillColor=#64bbe2;strokeColor=none;fontColor=#FFFFFF;rounded=1;shadow=0;labelBackgroundColor=none;strokeWidth=3;spacing=5;arcSize=7;" vertex="1" parent="1">
          <mxGeometry x="-160" y="562.25" width="135" height="57.75" as="geometry" />
        </mxCell>
        <mxCell id="EFk04_Iw9DsAVUD9k5jW-1827" value="" style="edgeStyle=orthogonalEdgeStyle;rounded=0;orthogonalLoop=1;jettySize=auto;html=1;" edge="1" parent="1" source="EFk04_Iw9DsAVUD9k5jW-1822" target="EFk04_Iw9DsAVUD9k5jW-1826">
          <mxGeometry relative="1" as="geometry" />
        </mxCell>
        <mxCell id="EFk04_Iw9DsAVUD9k5jW-1822" value="Риск:&amp;nbsp;потеря данных&lt;br&gt;Оценка: незначительная" style="whiteSpace=wrap;html=1;fontSize=14;fillColor=#f08e81;strokeColor=none;fontColor=#FFFFFF;rounded=1;shadow=0;labelBackgroundColor=none;strokeWidth=3;spacing=5;fontStyle=0;arcSize=7;" vertex="1" parent="1">
          <mxGeometry x="-270" y="387.75" width="155" height="60" as="geometry" />
        </mxCell>
        <mxCell id="EFk04_Iw9DsAVUD9k5jW-1829" value="" style="edgeStyle=orthogonalEdgeStyle;rounded=0;orthogonalLoop=1;jettySize=auto;html=1;" edge="1" parent="1" source="EFk04_Iw9DsAVUD9k5jW-1824" target="EFk04_Iw9DsAVUD9k5jW-1828">
          <mxGeometry relative="1" as="geometry" />
        </mxCell>
        <mxCell id="EFk04_Iw9DsAVUD9k5jW-1824" value="Риск:&amp;nbsp;потеря данных&lt;br&gt;Оценка: незначительная" style="whiteSpace=wrap;html=1;fontSize=14;fillColor=#f08e81;strokeColor=none;fontColor=#FFFFFF;rounded=1;shadow=0;labelBackgroundColor=none;strokeWidth=3;spacing=5;fontStyle=0;arcSize=7;" vertex="1" parent="1">
          <mxGeometry x="-180" y="260" width="150" height="60" as="geometry" />
        </mxCell>
        <mxCell id="EFk04_Iw9DsAVUD9k5jW-1826" value="Из-за резервного копирования данных" style="whiteSpace=wrap;html=1;fontSize=14;fillColor=#f08e81;strokeColor=none;fontColor=#FFFFFF;rounded=1;shadow=0;labelBackgroundColor=none;strokeWidth=3;spacing=5;fontStyle=0;arcSize=7;" vertex="1" parent="1">
          <mxGeometry x="-500" y="387.75" width="132.5" height="60" as="geometry" />
        </mxCell>
        <mxCell id="EFk04_Iw9DsAVUD9k5jW-1828" value="Из-за резервного копирования данных" style="whiteSpace=wrap;html=1;fontSize=14;fillColor=#f08e81;strokeColor=none;fontColor=#FFFFFF;rounded=1;shadow=0;labelBackgroundColor=none;strokeWidth=3;spacing=5;fontStyle=0;arcSize=7;" vertex="1" parent="1">
          <mxGeometry x="-410" y="260" width="135" height="60" as="geometry" />
        </mxCell>
        <mxCell id="EFk04_Iw9DsAVUD9k5jW-1833" value="" style="edgeStyle=orthogonalEdgeStyle;rounded=0;orthogonalLoop=1;jettySize=auto;html=1;" edge="1" parent="1" source="EFk04_Iw9DsAVUD9k5jW-1830" target="EFk04_Iw9DsAVUD9k5jW-1832">
          <mxGeometry relative="1" as="geometry" />
        </mxCell>
        <mxCell id="EFk04_Iw9DsAVUD9k5jW-1830" value="Риск: утечка данных&#xa;Оценка: критическая" style="whiteSpace=wrap;html=1;fontSize=14;fillColor=#f08e81;strokeColor=none;fontColor=#FFFFFF;rounded=1;shadow=0;labelBackgroundColor=none;strokeWidth=3;spacing=5;fontStyle=0;arcSize=7;" vertex="1" parent="1">
          <mxGeometry x="50" y="120" width="150" height="60" as="geometry" />
        </mxCell>
        <mxCell id="EFk04_Iw9DsAVUD9k5jW-1832" value="Из-за отсутствия ограничений на передачу данных между системами" style="whiteSpace=wrap;html=1;fontSize=14;fillColor=#f08e81;strokeColor=none;fontColor=#FFFFFF;rounded=1;shadow=0;labelBackgroundColor=none;strokeWidth=3;spacing=5;fontStyle=0;arcSize=7;" vertex="1" parent="1">
          <mxGeometry x="-10" y="-20" width="195" height="60" as="geometry" />
        </mxCell>
        <mxCell id="EFk04_Iw9DsAVUD9k5jW-1834" value="" style="edgeStyle=orthogonalEdgeStyle;rounded=0;orthogonalLoop=1;jettySize=auto;html=1;" edge="1" parent="1" source="EFk04_Iw9DsAVUD9k5jW-1835" target="EFk04_Iw9DsAVUD9k5jW-1836">
          <mxGeometry relative="1" as="geometry" />
        </mxCell>
        <mxCell id="EFk04_Iw9DsAVUD9k5jW-1835" value="Риск: утечка данных&#xa;Оценка: критическая" style="whiteSpace=wrap;html=1;fontSize=14;fillColor=#f08e81;strokeColor=none;fontColor=#FFFFFF;rounded=1;shadow=0;labelBackgroundColor=none;strokeWidth=3;spacing=5;fontStyle=0;arcSize=7;" vertex="1" parent="1">
          <mxGeometry x="-310" y="471.13" width="150" height="60" as="geometry" />
        </mxCell>
        <mxCell id="EFk04_Iw9DsAVUD9k5jW-1836" value="Из-за отсутствия ограничений на передачу данных между системами" style="whiteSpace=wrap;html=1;fontSize=14;fillColor=#f08e81;strokeColor=none;fontColor=#FFFFFF;rounded=1;shadow=0;labelBackgroundColor=none;strokeWidth=3;spacing=5;fontStyle=0;arcSize=7;" vertex="1" parent="1">
          <mxGeometry x="-580" y="471.13" width="185" height="60" as="geometry" />
        </mxCell>
        <mxCell id="EFk04_Iw9DsAVUD9k5jW-1838" value="" style="edgeStyle=orthogonalEdgeStyle;rounded=0;orthogonalLoop=1;jettySize=auto;html=1;" edge="1" parent="1" source="EFk04_Iw9DsAVUD9k5jW-1839" target="EFk04_Iw9DsAVUD9k5jW-1840">
          <mxGeometry relative="1" as="geometry" />
        </mxCell>
        <mxCell id="EFk04_Iw9DsAVUD9k5jW-1839" value="Риск:&amp;nbsp;потеря данных&lt;br&gt;Оценка: незначительная" style="whiteSpace=wrap;html=1;fontSize=14;fillColor=#64bbe2;strokeColor=none;fontColor=#FFFFFF;rounded=1;shadow=0;labelBackgroundColor=none;strokeWidth=3;spacing=5;arcSize=7;" vertex="1" parent="1">
          <mxGeometry x="970" y="670" width="150" height="60" as="geometry" />
        </mxCell>
        <mxCell id="EFk04_Iw9DsAVUD9k5jW-1840" value="Из-за резервного копирования данных" style="whiteSpace=wrap;html=1;fontSize=14;fillColor=#64bbe2;strokeColor=none;fontColor=#FFFFFF;rounded=1;shadow=0;labelBackgroundColor=none;strokeWidth=3;spacing=5;arcSize=7;" vertex="1" parent="1">
          <mxGeometry x="1060" y="776.5" width="135" height="57.75" as="geometry" />
        </mxCell>
      </root>
    </mxGraphModel>
  </diagram>
</mxfile>
